{"title":"MELVINS - The War on Wisdow (live @ The Troubadour, 2012)","uid":7226218,"size":182159360,"categoryP":"video","categoryS":"music_videos","magnet":"?xt=urn:btih:be587c6f9acbd3962db0f67dc2fb06d3420bdaab&amp;dn=MELVINS+-+The+War+on+Wisdow+%28live+%40+The+Troubadour%2C+2012%29&amp;tr=udp%3A%2F%2Ftracker.openbittorrent.com%3A80&amp;tr=udp%3A%2F%2Fopen.demonii.com%3A1337&amp;tr=udp%3A%2F%2Ftracker.coppersurfer.tk%3A6969&amp;tr=udp%3A%2F%2Fexodus.desync.com%3A6969","seeders":1,"leechers":1,"uploader":"stonedqueen","files":1,"time":1335683711,"description":"The Melvins - The War on Wisdom\nLive @ The Troubadour, Hollywood, CA\n\n2012/04/13 - PRO-SHOT\n\n\n\nScreenshots: \n &lt;a href=&quot;\nhttp://i.imgur.com/gJccs.jpg&quot; rel=&quot;nofollow&quot; target=&quot;_NEW&quot;&gt;\nhttp://i.imgur.com/gJccs.jpg&lt;/a&gt; &lt;a href=&quot;\nhttp://i.imgur.com/Hh0IU.jpg&quot; rel=&quot;nofollow&quot; target=&quot;_NEW&quot;&gt;\nhttp://i.imgur.com/Hh0IU.jpg&lt;/a&gt; &lt;a href=&quot;\nhttp://i.imgur.com/rANQw.jpg&quot; rel=&quot;nofollow&quot; target=&quot;_NEW&quot;&gt;\nhttp://i.imgur.com/rANQw.jpg&lt;/a&gt;\n\n\nFormat : MPEG-PS \nFile size : 174 MiB \nDuration : 3mn 25s \nOverall bit rate : 7 106 Kbps \n\nVideo \nID : 224 (0xE0) \nFormat : MPEG Video \nFormat version : Version 1 \nFormat settings, BVOP : No \nFormat settings, Matrix : Default \nDuration : 3mn 25s \nBit rate mode : Variable \nBit rate : 6 772 Kbps \nWidth : 1 280 pixels \nHeight : 768 pixels \nDisplay aspect ratio : 16:9 \nFrame rate : 25.000 fps \nColor space : YUV \nBit depth : 8 bits \nScan type : Progressive \nCompression mode : Lossy \nBits/(Pixel*Frame) : 0.276 \nStream size : 166 MiB (95%) \n\nAudio \nID : 192 (0xC0) \nFormat : MPEG Audio \nFormat version : Version 1 \nFormat profile : Layer 2 \nDuration : 3mn 25s \nBit rate mode : Constant \nBit rate : 192 Kbps \nChannel(s) : 2 channels \nSampling rate : 44.1 KHz \nCompression mode : Lossy \nStream size : 4.69 MiB (3%) \n\n\n\nAs broadcasted on Carson Daly 2012/04/25.","torrent":{"xt":"urn:btih:be587c6f9acbd3962db0f67dc2fb06d3420bdaab","amp;dn":"MELVINS+-+The+War+on+Wisdow+%28live+%40+The+Troubadour%2C+2012%29","amp;tr":["udp%3A%2F%2Ftracker.openbittorrent.com%3A80","udp%3A%2F%2Fopen.demonii.com%3A1337","udp%3A%2F%2Ftracker.coppersurfer.tk%3A6969","udp%3A%2F%2Fexodus.desync.com%3A6969"],"infoHash":"be587c6f9acbd3962db0f67dc2fb06d3420bdaab","infoHashBuffer":{"type":"Buffer","data":[190,88,124,111,154,203,211,150,45,176,246,125,194,251,6,211,66,11,218,171]},"announce":[],"urlList":[]}}